<?xml version="1.0" encoding="UTF-8" standalone="no"?>
<svg width="169px" height="307px" viewBox="0 0 169 307" version="1.1" xmlns="http://www.w3.org/2000/svg" xmlns:xlink="http://www.w3.org/1999/xlink">
    <!-- Generator: Sketch 3.8.2 (29753) - http://www.bohemiancoding.com/sketch -->
    <title>Group 2</title>
    <desc>Created with Sketch.</desc>
    <defs></defs>
    <g id="Page-1" stroke="none" stroke-width="1" fill="none" fill-rule="evenodd" opacity="0.354827425">
        <g id="Group-2" fill="#000000">
            <g id="noun_409880_cc" transform="translate(134.000000, 0.000000)">
                <path d="M0,25.6 C0,24.2 0.1,22.8 0.4,21.4 C0.6,20.6 1.3,20 2.2,20 L9.5,20 C10.4,20 11.1,20.6 11.3,21.4 C11.6,22.8 11.7,24.2 11.7,25.6 C11.7,31.8 9,36.8 5.8,36.8 C2.6,36.8 0,31.8 0,25.6 L0,25.6 Z" id="Shape"></path>
                <path d="M28.7,56.2 C25.5,56.1 22.9,51.1 23,44.9 C23.1,43.5 23.2,42.1 23.5,40.7 C23.7,39.9 24.5,39.3 25.3,39.3 L32.6,39.4 C33.5,39.4 34.2,40 34.4,40.8 C34.7,42.2 34.7,43.6 34.7,45 C34.7,51.3 32,56.3 28.7,56.2 L28.7,56.2 Z" id="Shape"></path>
                <path d="M23.2,6.1 C23.2,4.7 23.3,3.2 23.6,1.8 C23.8,1 24.5,0.4 25.4,0.4 L32.6,0.5 C33.5,0.5 34.2,1.1 34.4,2 C34.7,3.4 34.8,4.8 34.8,6.3 C34.8,12.6 32.1,17.7 28.9,17.7 C25.7,17.6 23.1,12.5 23.2,6.1 L23.2,6.1 Z" id="Shape"></path>
                <path d="M0.6,64.5 C0.6,63.1 0.7,61.7 1,60.3 C1.2,59.5 1.9,58.9 2.8,58.9 L10.1,58.9 C11,58.9 11.7,59.5 11.9,60.3 C12.2,61.7 12.3,63.1 12.3,64.5 C12.3,70.7 9.6,75.7 6.4,75.7 C3.2,75.8 0.6,70.7 0.6,64.5 L0.6,64.5 Z" id="Shape"></path>
                <path d="M28.5,94.8 C25.3,94.7 22.7,89.7 22.8,83.5 C22.9,82.1 23,80.7 23.3,79.3 C23.5,78.5 24.3,77.9 25.1,77.9 L32.4,78 C33.3,78 34,78.6 34.2,79.4 C34.5,80.8 34.5,82.2 34.5,83.6 C34.4,89.9 31.7,94.8 28.5,94.8 L28.5,94.8 Z" id="Shape"></path>
                <path d="M10.8,55.1 C10.6,55.9 9.9,56.5 9,56.5 L3.6,56.5 C2.7,56.5 1.9,55.9 1.8,55.1 C1.7,54.6 1.7,54.1 1.6,53.5 C1.6,50.2 3.7,47.5 6.3,47.5 C8.9,47.5 11,50.2 11,53.5 C11,54.1 10.9,54.6 10.8,55.1 L10.8,55.1 Z" id="Shape"></path>
                <path d="M32.9,74 C32.7,74.8 32,75.4 31.1,75.4 L25.7,75.4 C24.8,75.4 24,74.8 23.9,74 C23.8,73.5 23.8,73 23.7,72.4 C23.7,69.1 25.8,66.4 28.4,66.4 C31,66.4 33.1,69.1 33.1,72.4 C33.1,72.9 33,73.4 32.9,74 L32.9,74 Z" id="Shape"></path>
                <path d="M33.2,35.4 C33,36.2 32.3,36.8 31.4,36.8 L26,36.8 C25.1,36.8 24.3,36.2 24.2,35.4 C24.1,34.9 24.1,34.4 24,33.8 C24,30.5 26.1,27.8 28.7,27.8 C31.3,27.8 33.4,30.5 33.4,33.8 C33.4,34.4 33.3,34.9 33.2,35.4 L33.2,35.4 Z" id="Shape"></path>
                <path d="M10.2,16.1 C10,16.9 9.3,17.5 8.4,17.5 L3,17.5 C2.1,17.5 1.3,16.9 1.2,16.1 C1.1,15.6 1.1,15.1 1,14.5 C1,11.2 3.1,8.5 5.7,8.5 C8.3,8.5 10.4,11.2 10.4,14.5 C10.4,15 10.3,15.6 10.2,16.1 L10.2,16.1 Z" id="Shape"></path>
            </g>
            <g id="noun_409880_cc" transform="translate(0.000000, 220.000000)">
                <path d="M0,17.6 C0,16.2 0.1,14.8 0.4,13.4 C0.6,12.6 1.3,12 2.2,12 L9.5,12 C10.4,12 11.1,12.6 11.3,13.4 C11.6,14.8 11.7,16.2 11.7,17.6 C11.7,23.8 9,28.8 5.8,28.8 C2.6,28.8 0,23.8 0,17.6 L0,17.6 Z" id="Shape"></path>
                <path d="M28.7,48.2 C25.5,48.1 22.9,43.1 23,36.9 C23.1,35.5 23.2,34.1 23.5,32.7 C23.7,31.9 24.5,31.3 25.3,31.3 L32.6,31.4 C33.5,31.4 34.2,32 34.4,32.8 C34.7,34.2 34.7,35.6 34.7,37 C34.7,43.3 32,48.3 28.7,48.2 L28.7,48.2 Z" id="Shape"></path>
                <path d="M0.6,56.5 C0.6,55.1 0.7,53.7 1,52.3 C1.2,51.5 1.9,50.9 2.8,50.9 L10.1,50.9 C11,50.9 11.7,51.5 11.9,52.3 C12.2,53.7 12.3,55.1 12.3,56.5 C12.3,62.7 9.6,67.7 6.4,67.7 C3.2,67.8 0.6,62.7 0.6,56.5 L0.6,56.5 Z" id="Shape"></path>
                <path d="M28.5,86.8 C25.3,86.7 22.7,81.7 22.8,75.5 C22.9,74.1 23,72.7 23.3,71.3 C23.5,70.5 24.3,69.9 25.1,69.9 L32.4,70 C33.3,70 34,70.6 34.2,71.4 C34.5,72.8 34.5,74.2 34.5,75.6 C34.4,81.9 31.7,86.8 28.5,86.8 L28.5,86.8 Z" id="Shape"></path>
                <path d="M10.8,47.1 C10.6,47.9 9.9,48.5 9,48.5 L3.6,48.5 C2.7,48.5 1.9,47.9 1.8,47.1 C1.7,46.6 1.7,46.1 1.6,45.5 C1.6,42.2 3.7,39.5 6.3,39.5 C8.9,39.5 11,42.2 11,45.5 C11,46.1 10.9,46.6 10.8,47.1 L10.8,47.1 Z" id="Shape"></path>
                <path d="M32.9,66 C32.7,66.8 32,67.4 31.1,67.4 L25.7,67.4 C24.8,67.4 24,66.8 23.9,66 C23.8,65.5 23.8,65 23.7,64.4 C23.7,61.1 25.8,58.4 28.4,58.4 C31,58.4 33.1,61.1 33.1,64.4 C33.1,64.9 33,65.4 32.9,66 L32.9,66 Z" id="Shape"></path>
                <path d="M33.2,27.4 C33,28.2 32.3,28.8 31.4,28.8 L26,28.8 C25.1,28.8 24.3,28.2 24.2,27.4 C24.1,26.9 24.1,26.4 24,25.8 C24,22.5 26.1,19.8 28.7,19.8 C31.3,19.8 33.4,22.5 33.4,25.8 C33.4,26.4 33.3,26.9 33.2,27.4 L33.2,27.4 Z" id="Shape"></path>
                <path d="M10.2,8.1 C10,8.9 9.3,9.5 8.4,9.5 L3,9.5 C2.1,9.5 1.3,8.9 1.2,8.1 C1.1,7.6 1.1,7.1 1,6.5 C1,3.2 3.1,0.5 5.7,0.5 C8.3,0.5 10.4,3.2 10.4,6.5 C10.4,7 10.3,7.6 10.2,8.1 L10.2,8.1 Z" id="Shape"></path>
            </g>
            <g id="noun_409878_cc" transform="translate(118.500000, 123.000000) rotate(-90.000000) translate(-118.500000, -123.000000) translate(75.500000, 79.500000)">
                <g id="Group">
                    <path d="M2.6,29.4 C5.5,28.2 9.8,31.8 12.3,37.5 C12.8,38.8 13.3,40.1 13.6,41.5 C13.8,42.3 13.3,43.2 12.5,43.5 L6,46.3 C5.2,46.6 4.3,46.4 3.8,45.7 C3,44.5 2.3,43.3 1.8,42 C-0.7,36.2 -0.3,30.6 2.6,29.4 L2.6,29.4 Z M7.3,50.8 C7,50 7.4,49.1 8.1,48.7 L12.7,46 C13.4,45.6 14.4,45.7 14.9,46.3 C15.2,46.7 15.5,47.1 15.8,47.6 C17.5,50.5 17.1,53.8 14.9,55.1 C12.7,56.4 9.6,55.1 7.9,52.2 C7.7,51.7 7.5,51.3 7.3,50.8 L7.3,50.8 Z M69.4,60.3 C70.8,60.6 72.1,61 73.4,61.5 C74.2,61.8 74.6,62.7 74.4,63.5 L73,70.5 C72.8,71.3 72.1,72 71.3,72 C69.9,72 68.5,71.8 67.1,71.6 C61,70.4 56.6,66.9 57.2,63.8 C57.9,60.6 63.3,59 69.4,60.3 L69.4,60.3 Z M80.7,64.2 C83.8,65.3 85.7,68.1 84.9,70.5 C84.1,72.9 80.9,74 77.8,72.9 C77.3,72.7 76.8,72.5 76.4,72.2 C75.7,71.8 75.3,70.9 75.6,70.1 L77.3,65.1 C77.6,64.3 78.4,63.8 79.2,63.9 C79.6,63.9 80.2,64.1 80.7,64.2 L80.7,64.2 Z M27.3,69.5 C29.1,66.9 34.7,67.7 39.8,71.3 C40.9,72.1 42,73 43,74.1 C43.6,74.7 43.6,75.7 43.1,76.4 L39,82.2 C38.5,82.9 37.6,83.2 36.8,82.8 C35.5,82.2 34.3,81.5 33.1,80.7 C28.1,77.1 25.5,72.1 27.3,69.5 L27.3,69.5 Z M42.5,85.2 C41.8,84.7 41.7,83.7 42.1,83 L44.6,78.3 C45,77.5 45.9,77.2 46.7,77.4 C47.2,77.6 47.7,77.8 48.2,78 C51.1,79.5 52.5,82.6 51.3,84.8 C50.1,87 46.8,87.6 43.9,86 C43.4,85.9 42.9,85.6 42.5,85.2 L42.5,85.2 Z M41.2,40.9 C42.2,41.9 43.2,42.9 43.9,44.1 C44.4,44.8 44.3,45.7 43.7,46.4 L38.8,51.5 C38.2,52.1 37.3,52.2 36.6,51.8 C35.4,51 34.3,50.1 33.3,49.2 C28.8,44.9 27,39.6 29.1,37.3 C31.3,34.9 36.7,36.6 41.2,40.9 L41.2,40.9 Z M48.5,50.3 C50.6,52.9 50.7,56.3 48.7,57.9 C46.7,59.5 43.5,58.7 41.4,56.1 C41.1,55.7 40.8,55.2 40.5,54.8 C40.1,54.1 40.3,53.1 41,52.6 L45.1,49.2 C45.8,48.7 46.7,48.7 47.4,49.2 C47.8,49.5 48.2,49.9 48.5,50.3 L48.5,50.3 Z M16.9,0.2 C19.9,-0.4 23.4,4 24.7,10.2 C25,11.6 25.2,13 25.2,14.5 C25.2,15.4 24.6,16.1 23.8,16.3 L17,17.7 C16.2,17.9 15.4,17.4 15,16.7 C14.4,15.4 14.1,14 13.8,12.6 C12.4,6.3 13.9,0.8 16.9,0.2 L16.9,0.2 Z M18.6,20.5 L23.5,18.8 C24.3,18.5 25.2,18.9 25.6,19.6 C25.9,20.1 26.1,20.6 26.3,21.1 C27.4,24.3 26.4,27.5 24,28.3 C21.7,29.1 18.9,27.2 17.8,24 C17.6,23.4 17.4,22.9 17.4,22.4 C17.3,21.6 17.8,20.7 18.6,20.5 Z" id="Shape"></path>
                </g>
            </g>
            <g id="noun_409878_cc" transform="translate(53.000000, 190.500000) scale(1, -1) translate(-53.000000, -190.500000) translate(10.000000, 147.000000)">
                <g id="Group" transform="translate(0.000000, 0.000000)">
                    <path d="M2.9,29.3 C5.8,28.1 10.1,31.7 12.6,37.4 C13.1,38.7 13.6,40 13.9,41.4 C14.1,42.2 13.6,43.1 12.8,43.4 L6.3,46.2 C5.5,46.5 4.6,46.3 4.1,45.6 C3.3,44.4 2.6,43.2 2.1,41.9 C-0.4,36.1 -2.84217094e-14,30.5 2.9,29.3 L2.9,29.3 Z M7.6,50.7 C7.3,49.9 7.7,49 8.4,48.6 L13,45.9 C13.7,45.5 14.7,45.6 15.2,46.2 C15.5,46.6 15.8,47 16.1,47.5 C17.8,50.4 17.4,53.7 15.2,55 C13,56.3 9.9,55 8.2,52.1 C8,51.6 7.8,51.2 7.6,50.7 L7.6,50.7 Z M69.7,60.2 C71.1,60.5 72.4,60.9 73.7,61.4 C74.5,61.7 74.9,62.6 74.7,63.4 L73.3,70.4 C73.1,71.2 72.4,71.9 71.6,71.9 C70.2,71.9 68.8,71.7 67.4,71.5 C61.3,70.3 56.9,66.8 57.5,63.7 C58.2,60.5 63.6,58.9 69.7,60.2 L69.7,60.2 Z M81,64.1 C84.1,65.2 86,68 85.2,70.4 C84.4,72.8 81.2,73.9 78.1,72.8 C77.6,72.6 77.1,72.4 76.7,72.1 C76,71.7 75.6,70.8 75.9,70 L77.6,65 C77.9,64.2 78.7,63.7 79.5,63.8 C79.9,63.8 80.5,64 81,64.1 L81,64.1 Z M27.6,69.4 C29.4,66.8 35,67.6 40.1,71.2 C41.2,72 42.3,72.9 43.3,74 C43.9,74.6 43.9,75.6 43.4,76.3 L39.3,82.1 C38.8,82.8 37.9,83.1 37.1,82.7 C35.8,82.1 34.6,81.4 33.4,80.6 C28.4,77 25.8,72 27.6,69.4 L27.6,69.4 Z M42.8,85.1 C42.1,84.6 42,83.6 42.4,82.9 L44.9,78.2 C45.3,77.4 46.2,77.1 47,77.3 C47.5,77.5 48,77.7 48.5,77.9 C51.4,79.4 52.8,82.5 51.6,84.7 C50.4,86.9 47.1,87.5 44.2,85.9 C43.7,85.8 43.2,85.5 42.8,85.1 L42.8,85.1 Z M41.5,40.8 C42.5,41.8 43.5,42.8 44.2,44 C44.7,44.7 44.6,45.6 44,46.3 L39.1,51.4 C38.5,52 37.6,52.1 36.9,51.7 C35.7,50.9 34.6,50 33.6,49.1 C29.1,44.8 27.3,39.5 29.4,37.2 C31.6,34.8 37,36.5 41.5,40.8 L41.5,40.8 Z M48.8,50.2 C50.9,52.8 51,56.2 49,57.8 C47,59.4 43.8,58.6 41.7,56 C41.4,55.6 41.1,55.1 40.8,54.7 C40.4,54 40.6,53 41.3,52.5 L45.4,49.1 C46.1,48.6 47,48.6 47.7,49.1 C48.1,49.4 48.5,49.8 48.8,50.2 L48.8,50.2 Z M17.2,0.1 C20.2,-0.5 23.7,3.9 25,10.1 C25.3,11.5 25.5,12.9 25.5,14.4 C25.5,15.3 24.9,16 24.1,16.2 L17.3,17.6 C16.5,17.8 15.7,17.3 15.3,16.6 C14.7,15.3 14.4,13.9 14.1,12.5 C12.7,6.2 14.2,0.7 17.2,0.1 L17.2,0.1 Z M17.7,22.3 C17.6,21.5 18.1,20.6 18.9,20.4 L23.8,18.7 C24.6,18.4 25.5,18.8 25.9,19.5 C26.2,20 26.4,20.5 26.6,21 C27.7,24.2 26.7,27.4 24.3,28.2 C22,29 19.2,27.1 18.1,23.9 C17.9,23.3 17.7,22.8 17.7,22.3 L17.7,22.3 Z" id="Shape"></path>
                </g>
            </g>
        </g>
    </g>
</svg>