<?xml version="1.0" encoding="UTF-8" standalone="yes"?><svg xmlns="http://www.w3.org/2000/svg" version="1.1" xmlns:xlink="http://www.w3.org/1999/xlink" viewBox="0 0 169 307"><g fill-rule="evenodd" opacity=".355"><path d="M35 25.6c0-1.4-.1-2.8-.4-4.2-.2-.8-.9-1.4-1.8-1.4h-7.3c-.9 0-1.6.6-1.8 1.4-.3 1.4-.4 2.8-.4 4.2 0 6.2 2.7 11.2 5.9 11.2s5.8-5 5.8-11.2zM6.3 56.2c3.2-.1 5.8-5.1 5.7-11.3-.1-1.4-.2-2.8-.5-4.2-.2-.8-1-1.4-1.8-1.4l-7.3.1c-.9 0-1.6.6-1.8 1.4C.3 42.2.3 43.6.3 45c0 6.3 2.7 11.3 6 11.2zm5.5-50.1c0-1.4-.1-2.9-.4-4.3C11.2 1 10.5.4 9.6.4L2.4.5C1.5.5.8 1.1.6 2 .3 3.4.2 4.8.2 6.3c0 6.3 2.7 11.4 5.9 11.4 3.2-.1 5.8-5.2 5.7-11.6zm22.6 58.4c0-1.4-.1-2.8-.4-4.2-.2-.8-.9-1.4-1.8-1.4h-7.3c-.9 0-1.6.6-1.8 1.4-.3 1.4-.4 2.8-.4 4.2 0 6.2 2.7 11.2 5.9 11.2 3.2.1 5.8-5 5.8-11.2zM6.5 94.8c3.2-.1 5.8-5.1 5.7-11.3-.1-1.4-.2-2.8-.5-4.2-.2-.8-1-1.4-1.8-1.4l-7.3.1c-.9 0-1.6.6-1.8 1.4-.3 1.4-.3 2.8-.3 4.2.1 6.3 2.8 11.2 6 11.2zm17.7-39.7c.2.8.9 1.4 1.8 1.4h5.4c.9 0 1.7-.6 1.8-1.4.1-.5.1-1 .2-1.6 0-3.3-2.1-6-4.7-6s-4.7 2.7-4.7 6c0 .6.1 1.1.2 1.6zM2.1 74c.2.8.9 1.4 1.8 1.4h5.4c.9 0 1.7-.6 1.8-1.4.1-.5.1-1 .2-1.6 0-3.3-2.1-6-4.7-6s-4.7 2.7-4.7 6c0 .5.1 1 .2 1.6zm-.3-38.6c.2.8.9 1.4 1.8 1.4H9c.9 0 1.7-.6 1.8-1.4.1-.5.1-1 .2-1.6 0-3.3-2.1-6-4.7-6s-4.7 2.7-4.7 6c0 .6.1 1.1.2 1.6zm23-19.3c.2.8.9 1.4 1.8 1.4H32c.9 0 1.7-.6 1.8-1.4.1-.5.1-1 .2-1.6 0-3.3-2.1-6-4.7-6s-4.7 2.7-4.7 6c0 .5.1 1.1.2 1.6zM169 237.6c0-1.4-.1-2.8-.4-4.2-.2-.8-.9-1.4-1.8-1.4h-7.3c-.9 0-1.6.6-1.8 1.4-.3 1.4-.4 2.8-.4 4.2 0 6.2 2.7 11.2 5.9 11.2s5.8-5 5.8-11.2zm-28.7 30.6c3.2-.1 5.8-5.1 5.7-11.3-.1-1.4-.2-2.8-.5-4.2-.2-.8-1-1.4-1.8-1.4l-7.3.1c-.9 0-1.6.6-1.8 1.4-.3 1.4-.3 2.8-.3 4.2 0 6.3 2.7 11.3 6 11.2zm28.1 8.3c0-1.4-.1-2.8-.4-4.2-.2-.8-.9-1.4-1.8-1.4h-7.3c-.9 0-1.6.6-1.8 1.4-.3 1.4-.4 2.8-.4 4.2 0 6.2 2.7 11.2 5.9 11.2 3.2.1 5.8-5 5.8-11.2zm-27.9 30.3c3.2-.1 5.8-5.1 5.7-11.3-.1-1.4-.2-2.8-.5-4.2-.2-.8-1-1.4-1.8-1.4l-7.3.1c-.9 0-1.6.6-1.8 1.4-.3 1.4-.3 2.8-.3 4.2.1 6.3 2.8 11.2 6 11.2zm17.7-39.7c.2.8.9 1.4 1.8 1.4h5.4c.9 0 1.7-.6 1.8-1.4.1-.5.1-1 .2-1.6 0-3.3-2.1-6-4.7-6s-4.7 2.7-4.7 6c0 .6.1 1.1.2 1.6zM136.1 286c.2.8.9 1.4 1.8 1.4h5.4c.9 0 1.7-.6 1.8-1.4.1-.5.1-1 .2-1.6 0-3.3-2.1-6-4.7-6s-4.7 2.7-4.7 6c0 .5.1 1 .2 1.6zm-.3-38.6c.2.8.9 1.4 1.8 1.4h5.4c.9 0 1.7-.6 1.8-1.4.1-.5.1-1 .2-1.6 0-3.3-2.1-6-4.7-6s-4.7 2.7-4.7 6c0 .6.1 1.1.2 1.6zm23-19.3c.2.8.9 1.4 1.8 1.4h5.4c.9 0 1.7-.6 1.8-1.4.1-.5.1-1 .2-1.6 0-3.3-2.1-6-4.7-6s-4.7 2.7-4.7 6c0 .5.1 1.1.2 1.6zM64.6 163.4c1.2-2.9-2.4-7.2-8.1-9.7-1.3-.5-2.6-1-4-1.3-.8-.2-1.7.3-2 1.1l-2.8 6.5c-.3.8-.1 1.7.6 2.2 1.2.8 2.4 1.5 3.7 2 5.8 2.5 11.4 2.1 12.6-.8zm-21.4-4.7c.8.3 1.7-.1 2.1-.8l2.7-4.6c.4-.7.3-1.7-.3-2.2-.4-.3-.8-.6-1.3-.9-2.9-1.7-6.2-1.3-7.5.9-1.3 2.2 0 5.3 2.9 7 .5.2.9.4 1.4.6zm-9.5-62.1c-.3-1.4-.7-2.7-1.2-4-.3-.8-1.2-1.2-2-1l-7 1.4c-.8.2-1.5.9-1.5 1.7 0 1.4.2 2.8.4 4.2 1.2 6.1 4.7 10.5 7.8 9.9 3.2-.7 4.8-6.1 3.5-12.2zm-3.9-11.3c-1.1-3.1-3.9-5-6.3-4.2-2.4.8-3.5 4-2.4 7.1.2.5.4 1 .7 1.4.4.7 1.3 1.1 2.1.8l5-1.7c.8-.3 1.3-1.1 1.2-1.9 0-.4-.2-1-.3-1.5zm-5.3 53.4c2.6-1.8 1.8-7.4-1.8-12.5-.8-1.1-1.7-2.2-2.8-3.2-.6-.6-1.6-.6-2.3-.1l-5.8 4.1c-.7.5-1 1.4-.6 2.2.6 1.3 1.3 2.5 2.1 3.7 3.6 5 8.6 7.6 11.2 5.8zM8.8 123.5c.5.7 1.5.8 2.2.4l4.7-2.5c.8-.4 1.1-1.3.9-2.1l-.6-1.5c-1.5-2.9-4.6-4.3-6.8-3.1-2.2 1.2-2.8 4.5-1.2 7.4.1.5.4 1 .8 1.4zm44.3 1.3c-1-1-2-2-3.2-2.7-.7-.5-1.6-.4-2.3.2l-5.1 4.9c-.6.6-.7 1.5-.3 2.2.8 1.2 1.7 2.3 2.6 3.3 4.3 4.5 9.6 6.3 11.9 4.2 2.4-2.2.7-7.6-3.6-12.1zm-9.4-7.3c-2.6-2.1-6-2.2-7.6-.2-1.6 2-.8 5.2 1.8 7.3.4.3.9.6 1.3.9.7.4 1.7.2 2.2-.5l3.4-4.1c.5-.7.5-1.6 0-2.3-.3-.4-.7-.8-1.1-1.1zm50.1 31.6c.6-3-3.8-6.5-10-7.8-1.4-.3-2.8-.5-4.3-.5-.9 0-1.6.6-1.8 1.4l-1.4 6.8c-.2.8.3 1.6 1 2 1.3.6 2.7.9 4.1 1.2 6.3 1.4 11.8-.1 12.4-3.1zm-20.3-1.7l1.7-4.9c.3-.8-.1-1.7-.8-2.1-.5-.3-1-.5-1.5-.7-3.2-1.1-6.4-.1-7.2 2.3-.8 2.3 1.1 5.1 4.3 6.2.6.2 1.1.4 1.6.4.8.1 1.7-.4 1.9-1.2zM156.1 204.7c-2.9 1.2-7.2-2.4-9.7-8.1-.5-1.3-1-2.6-1.3-4-.2-.8.3-1.7 1.1-2l6.5-2.8c.8-.3 1.7-.1 2.2.6.8 1.2 1.5 2.4 2 3.7 2.5 5.8 2.1 11.4-.8 12.6zm-4.7-21.4c.3.8-.1 1.7-.8 2.1l-4.6 2.7c-.7.4-1.7.3-2.2-.3-.3-.4-.6-.8-.9-1.3-1.7-2.9-1.3-6.2.9-7.5 2.2-1.3 5.3 0 7 2.9.2.5.4.9.6 1.4zm-62.1-9.5c-1.4-.3-2.7-.7-4-1.2-.8-.3-1.2-1.2-1-2l1.4-7c.2-.8.9-1.5 1.7-1.5 1.4 0 2.8.2 4.2.4 6.1 1.2 10.5 4.7 9.9 7.8-.7 3.2-6.1 4.8-12.2 3.5zM78 169.9c-3.1-1.1-5-3.9-4.2-6.3.8-2.4 4-3.5 7.1-2.4.5.2 1 .4 1.4.7.7.4 1.1 1.3.8 2.1l-1.7 5c-.3.8-1.1 1.3-1.9 1.2-.4 0-1-.2-1.5-.3zm53.4-5.3c-1.8 2.6-7.4 1.8-12.5-1.8-1.1-.8-2.2-1.7-3.2-2.8-.6-.6-.6-1.6-.1-2.3l4.1-5.8c.5-.7 1.4-1 2.2-.6 1.3.6 2.5 1.3 3.7 2.1 5 3.6 7.6 8.6 5.8 11.2zm-15.2-15.7c.7.5.8 1.5.4 2.2l-2.5 4.7c-.4.8-1.3 1.1-2.1.9l-1.5-.6c-2.9-1.5-4.3-4.6-3.1-6.8 1.2-2.2 4.5-2.8 7.4-1.2.5.1 1 .4 1.4.8zm1.3 44.3c-1-1-2-2-2.7-3.2-.5-.7-.4-1.6.2-2.3l4.9-5.1c.6-.6 1.5-.7 2.2-.3 1.2.8 2.3 1.7 3.3 2.6 4.5 4.3 6.3 9.6 4.2 11.9-2.2 2.4-7.6.7-12.1-3.6zm-7.3-9.4c-2.1-2.6-2.2-6-.2-7.6 2-1.6 5.2-.8 7.3 1.8.3.4.6.9.9 1.3.4.7.2 1.7-.5 2.2l-4.1 3.4c-.7.5-1.6.5-2.3 0-.4-.3-.8-.7-1.1-1.1zm31.6 50.1c-3 .6-6.5-3.8-7.8-10-.3-1.4-.5-2.8-.5-4.3 0-.9.6-1.6 1.4-1.8l6.8-1.4c.8-.2 1.6.3 2 1 .6 1.3.9 2.7 1.2 4.1 1.4 6.3-.1 11.8-3.1 12.4zm-.5-22.2c.1.8-.4 1.7-1.2 1.9l-4.9 1.7c-.8.3-1.7-.1-2.1-.8-.3-.5-.5-1-.7-1.5-1.1-3.2-.1-6.4 2.3-7.2 2.3-.8 5.1 1.1 6.2 4.3.2.6.4 1.1.4 1.6z"/></g></svg>
