<?xml version="1.0" encoding="UTF-8" standalone="yes"?><svg xmlns="http://www.w3.org/2000/svg" version="1.1" xmlns:xlink="http://www.w3.org/1999/xlink" viewBox="0 0 84 99"><g fill="none" fill-rule="evenodd"><path fill="#000" fill-opacity=".05" d="M79.5 68.3c-4.8-.3-4.4 1.6-4.4 1.6l.2 4.6s0 2.4-1.4 2.3c-1.4-.1-1.8-2.8-1.8-2.8L71 69.4c0-.1.1-.3.1-.4.1-.3.1-.7 0-1-.1-.7-.2-1.5-.7-2.1 0 0-.8-.5-.8-.4-.5-3.4-2.2-6.8-5.7-7.8-.2-.1-2.5-.5-3.6-.7.1-.3.3-.6.4-.9.3-1.2-.4-2.3-.8-3.3-.3-1-.2-1.9 1-2 1.1-.1 3.1 1 3.7.8.7-.1 1.5-.7 1.5-1.5s-1.2-2.5-1.2-2.5-1.6-3.2-2.1-4.6c-.5-1.4-2.3-2.7-2.3-2.7s-1.8-1.3-1.6-2.2c.2-.9.9-1.2 1.2-2.1 1 .1 2.1.4 2.9.5 2.9.4 6.7 1.2 9 .7 0 0 1.2-.1 0-1s-4.1-3.7-5-4.7c-.9-1-4.1-3.1-4.7-4.4-1.9-3.9-2.4-8.6-5.6-11.9-2.3-2.4-5.2-4.3-8.2-5.6 1.1.2 2.2.3 3.3.3h.4V9c-2.8.1-6-.6-8.3-1.2.5 0 1-.1 1.6-.3 1-.3 2.9-1.1 2.5-2.5-.5-1.9-3.8-1.3-5.1-1.1-2.5.4-4.8 1.6-7 2.8-.3-.4-.8-.5-1.4-.4-.4.1-.7.3-.9.5-.4-.2-1.7-.7-4.9-.7-2 0-8.9 2.1-5.3 4.4-1.5.4-3.2.8-4.4.9l.1.9c.7-.1 1.5-.2 2.4-.4-2.5 1.5-4.7 3.4-6.6 5.6-2 2.3-3.1 5.4-3.5 8.3-.5 3.6.5 7.2.3 10.8-.2 1.9-1.2 2.8-2.2 4.3-1 1.5-1.4 3.2-2.4 4.7C6.3 47 5 48 3.9 49.2c-.4.4-.3.7 0 .8h.4c.8-.1 1.5-.5 2.2-.7 1.1-.3 2.2-.6 3.2-1 .7-.3 3-1 5.4-1.9.1.9.2 1.9.4 2.5.4 1.2 2.3 3.4 2.3 3.4s1.8 1.6 1.9 3.7c0 1.1-.3 2-.7 2.6-.6-.4-2.2-1-3.6.8-1.8 2.3-2.5 4.4-3.4 5.6-.9 1.2-3 3.6-3.2 4.7-.2 1.1.8 2.3.8 2.3L3.9 82.3s2.5 2.9 8.6 3.3c6.1.4 6.5-1.3 14.3.8 7.8 2.1 12.2 13.9 27.5 12 0 0-2-6.2-4.5-9.9s-5.4-7.8-5.4-7.8c.2-1.1 1.4-4.6.6-5.4-.5-.5-1-.9-1.5-1.4.4-.9.9-1.8.9-2.8 0-.9-.4-2-.1-2.9.2-.6.8-1 1.4-1 .8 0 1.3.7 2.1.9.8.2 2.1.1 2.9.1.9 0 1.7.7 2.5.9 2.1.7 4.4.4 5.9-1.3 1.6-1.8.3-3.6.3-3.6s-1.2-1.5-1.2-2.4c0-.9.7-1.6.7-1.6v-.1h.3c.7 0 1.3-.5 1.3-1 0-.2 0-.3-.1-.4.5.1 1.2.2 1.3.2.8.2 1.5.4 2.2.8 1.4.8 2.3 2.2 2.7 3.7.1.5.7 2.2.3 2.6-.3.3-.4 1.1-.4 1.5 0 .8.3 1.7.8 2.3.1.2.6.5.7.7 1.2 5.1 1.6 11.1 8.3 11.6 2.8.2 4.4-1.3 4.4-1.3s1.8-1.1 2.4-4.1c.6-3 .7-6.5.7-6.5s.5-1.7-4.3-1.9zM37.6 7.4h-1.1v-.1c.2.1.6.1 1.1.1zm-7.5.5c.3-.1 2.5-.4 3.4-.4v.2c-.3 0-.7.1-1 .1-1.6.2-3.3.6-4.9 1.2.8-.5 1.6-1 2.5-1.1zm-5.5.3c1.6-.8 2.9-.9 4.7-1.1-1.4.1-3.1 2.5-4.6 2-.4-.2-.6-.6-.1-.9zM41 7.6h.4-.4zm1.1-1.1c-.8-.1-2.2-.5-3-.2 1.3-.4 2.5-.9 3.8-1.2.7-.1 1.4-.2 2.1-.1 1 .2 1.1.9.2 1.4h-.1c-.9.5-2 .2-3 .1z"/><path fill="#EDEDED" d="M78.5 67.3c-4.8-.3-4.4 1.6-4.4 1.6l.2 4.6s0 2.4-1.4 2.3c-1.4-.1-1.8-2.8-1.8-2.8L70 68.4c0-.1.1-.3.1-.4.1-.3.1-.7 0-1-.1-.7-.2-1.5-.7-2.1 0 0-.8-.5-.8-.4-.5-3.4-2.2-6.8-5.7-7.8-.2-.1-2.5-.5-3.6-.7.1-.3.3-.6.4-.9.3-1.2-.4-2.3-.8-3.3-.3-1-.2-1.9 1-2 1.1-.1 3.1 1 3.7.8.7-.1 1.5-.7 1.5-1.5s-1.2-2.5-1.2-2.5-1.6-3.2-2.1-4.6c-.5-1.4-2.3-2.7-2.3-2.7s-1.8-1.3-1.6-2.2c.2-.9.9-1.2 1.2-2.1 1 .1 2.1.4 2.9.5 2.9.4 6.7 1.2 9 .7 0 0 1.2-.1 0-1s-4.1-3.7-5-4.7c-.9-1-4.1-3.1-4.7-4.4-1.9-3.9-2.4-8.6-5.6-11.9-2.3-2.4-5.2-4.3-8.2-5.6 1.1.2 2.2.3 3.3.3h.4V8c-2.8.1-6-.6-8.3-1.2.5 0 1-.1 1.6-.3 1-.3 2.9-1.1 2.5-2.5-.5-1.9-3.8-1.3-5.1-1.1-2.5.4-4.8 1.6-7 2.8-.3-.4-.8-.5-1.4-.4-.4.1-.7.3-.9.5-.4-.2-1.7-.7-4.9-.7-2 0-8.9 2.1-5.3 4.4-1.5.4-3.2.8-4.4.9l.1.9c.7-.1 1.5-.2 2.4-.4-2.5 1.5-4.7 3.4-6.6 5.6-2 2.3-3.1 5.4-3.5 8.3-.5 3.6.5 7.2.3 10.8-.2 1.9-1.2 2.8-2.2 4.3-1 1.5-1.4 3.2-2.4 4.7C5.3 46 4 47 2.9 48.2c-.4.4-.3.7 0 .8h.4c.8-.1 1.5-.5 2.2-.7 1.1-.3 2.2-.6 3.2-1 .7-.3 3-1 5.4-1.9.1.9.2 1.9.4 2.5.4 1.2 2.3 3.4 2.3 3.4s1.8 1.6 1.9 3.7c0 1.1-.3 2-.7 2.6-.6-.4-2.2-1-3.6.8-1.8 2.3-2.5 4.4-3.4 5.6-.9 1.2-3 3.6-3.2 4.7-.2 1.1.8 2.3.8 2.3L2.9 81.3s2.5 2.9 8.6 3.3c6.1.4 6.5-1.3 14.3.8 7.8 2.1 12.2 13.9 27.5 12 0 0-2-6.2-4.5-9.9s-5.4-7.8-5.4-7.8c.2-1.1 1.4-4.6.6-5.4-.5-.5-1-.9-1.5-1.4.4-.9.9-1.8.9-2.8 0-.9-.4-2-.1-2.9.2-.6.8-1 1.4-1 .8 0 1.3.7 2.1.9.8.2 2.1.1 2.9.1.9 0 1.7.7 2.5.9 2.1.7 4.4.4 5.9-1.3 1.6-1.8.3-3.6.3-3.6s-1.2-1.5-1.2-2.4c0-.9.7-1.6.7-1.6v-.1h.3c.7 0 1.3-.5 1.3-1 0-.2 0-.3-.1-.4.5.1 1.2.2 1.3.2.8.2 1.5.4 2.2.8 1.4.8 2.3 2.2 2.7 3.7.1.5.7 2.2.3 2.6-.3.3-.4 1.1-.4 1.5 0 .8.3 1.7.8 2.3.1.2.6.5.7.7 1.2 5.1 1.6 11.1 8.3 11.6 2.8.2 4.4-1.3 4.4-1.3s1.8-1.1 2.4-4.1c.6-3 .7-6.5.7-6.5s.5-1.7-4.3-1.9zM36.6 6.4h-1.1v-.1c.2.1.6.1 1.1.1zm-7.5.5c.3-.1 2.5-.4 3.4-.4v.2c-.3 0-.7.1-1 .1-1.6.2-3.3.6-4.9 1.2.8-.5 1.6-1 2.5-1.1zm-5.5.3c1.6-.8 2.9-.9 4.7-1.1-1.4.1-3.1 2.5-4.6 2-.4-.2-.6-.6-.1-.9zM40 6.6h.4-.4zm1.1-1.1c-.8-.1-2.2-.5-3-.2 1.3-.4 2.5-.9 3.8-1.2.7-.1 1.4-.2 2.1-.1 1 .2 1.1.9.2 1.4h-.1c-.9.5-2 .2-3 .1z"/><path fill="#000" d="M76.5 65.3c-4.8-.3-4.4 1.6-4.4 1.6l.2 4.6s0 2.4-1.4 2.3c-1.4-.1-1.8-2.8-1.8-2.8L68 66.4c0-.1.1-.3.1-.4.1-.3.1-.7 0-1-.1-.7-.2-1.5-.7-2.1 0 0-.8-.5-.8-.4-.5-3.4-2.2-6.8-5.7-7.8-.2-.1-2.5-.5-3.6-.7.1-.3.3-.6.4-.9.3-1.2-.4-2.3-.8-3.3-.3-1-.2-1.9 1-2 1.1-.1 3.1 1 3.7.8.7-.1 1.5-.7 1.5-1.5s-1.2-2.5-1.2-2.5-1.6-3.2-2.1-4.6c-.5-1.4-2.3-2.7-2.3-2.7s-1.8-1.3-1.6-2.2c.2-.9.9-1.2 1.2-2.1 1 .1 2.1.4 2.9.5 2.9.4 6.7 1.2 9 .7 0 0 1.2-.1 0-1s-4.1-3.7-5-4.7c-.9-1-4.1-3.1-4.7-4.4-1.9-3.9-2.4-8.6-5.6-11.9-2.3-2.4-5.2-4.3-8.2-5.6 1.1.2 2.2.3 3.3.3h.4V6c-2.8.1-6-.6-8.3-1.2.5 0 1-.1 1.6-.3 1-.3 2.9-1.1 2.5-2.5C44.5.1 41.2.7 39.9.9c-2.5.4-4.8 1.6-7 2.8-.3-.4-.8-.5-1.4-.4-.4.1-.7.3-.9.5-.4-.2-1.7-.7-4.9-.7-2 0-8.9 2.1-5.3 4.4-1.5.4-3.2.8-4.4.9l.1.9c.7-.1 1.5-.2 2.4-.4-2.5 1.5-4.7 3.4-6.6 5.6-2 2.3-3.1 5.4-3.5 8.3-.5 3.6.5 7.2.3 10.8-.2 1.9-1.2 2.8-2.2 4.3-1 1.5-1.4 3.2-2.4 4.7C3.3 44 2 45 .9 46.2c-.4.4-.3.7 0 .8h.4c.8-.1 1.5-.5 2.2-.7 1.1-.3 2.2-.6 3.2-1 .7-.3 3-1 5.4-1.9.1.9.2 1.9.4 2.5.4 1.2 2.3 3.4 2.3 3.4s1.8 1.6 1.9 3.7c0 1.1-.3 2-.7 2.6-.6-.4-2.2-1-3.6.8-1.8 2.3-2.5 4.4-3.4 5.6-.9 1.2-3 3.6-3.2 4.7-.2 1.1.8 2.3.8 2.3L.9 79.3s2.5 2.9 8.6 3.3c6.1.4 6.5-1.3 14.3.8 7.8 2.1 12.2 13.9 27.5 12 0 0-2-6.2-4.5-9.9s-5.4-7.8-5.4-7.8c.2-1.1 1.4-4.6.6-5.4-.5-.5-1-.9-1.5-1.4.4-.9.9-1.8.9-2.8 0-.9-.4-2-.1-2.9.2-.6.8-1 1.4-1 .8 0 1.3.7 2.1.9.8.2 2.1.1 2.9.1.9 0 1.7.7 2.5.9 2.1.7 4.4.4 5.9-1.3 1.6-1.8.3-3.6.3-3.6s-1.2-1.5-1.2-2.4c0-.9.7-1.6.7-1.6v-.1h.3c.7 0 1.3-.5 1.3-1 0-.2 0-.3-.1-.4.5.1 1.2.2 1.3.2.8.2 1.5.4 2.2.8 1.4.8 2.3 2.2 2.7 3.7.1.5.7 2.2.3 2.6-.3.3-.4 1.1-.4 1.5 0 .8.3 1.7.8 2.3.1.2.6.5.7.7 1.2 5.1 1.6 11.1 8.3 11.6 2.8.2 4.4-1.3 4.4-1.3s1.8-1.1 2.4-4.1c.6-3 .7-6.5.7-6.5s.5-1.7-4.3-1.9zM34.6 4.4h-1.1v-.1c.2.1.6.1 1.1.1zm-7.5.5c.3-.1 2.5-.4 3.4-.4v.2c-.3 0-.7.1-1 .1-1.6.2-3.3.6-4.9 1.2.8-.5 1.6-1 2.5-1.1zm-5.5.3c1.6-.8 2.9-.9 4.7-1.1-1.4.1-3.1 2.5-4.6 2-.4-.2-.6-.6-.1-.9zM38 4.6h.4-.4zm1.1-1.1c-.8-.1-2.2-.5-3-.2 1.3-.4 2.5-.9 3.8-1.2.7-.1 1.4-.2 2.1-.1 1 .2 1.1.9.2 1.4h-.1c-.9.5-2 .2-3 .1z"/></g></svg>
