<?xml version="1.0" encoding="UTF-8" standalone="no"?>
<svg width="100px" height="100px" viewBox="0 0 100 100" version="1.1" xmlns="http://www.w3.org/2000/svg" xmlns:xlink="http://www.w3.org/1999/xlink">
    <!-- Generator: Sketch 3.8.2 (29753) - http://www.bohemiancoding.com/sketch -->
    <title>noun_15795_cc</title>
    <desc>Created with Sketch.</desc>
    <defs></defs>
    <g id="Page-1" stroke="none" stroke-width="1" fill="none" fill-rule="evenodd">
        <g id="noun_15795_cc" transform="translate(-1.000000, 0.000000)" fill="#C6C6C6">
            <path d="M65.898,0 C46.508,0.003 30.799,15.621 30.795,34.897 C30.795,40.456 33.508,47.674 33.508,47.674 C34.057,49.133 34.931,51.53 35.45,53 C35.45,53 36.02,54.612 36.02,56.78 C36.02,59.374 30.909,64.475 28.3,64.475 L27.449,64.475 C26.656,64.106 25.273,64.528 24.377,65.413 C23.481,66.299 21.925,67.997 20.92,69.188 L18.587,71.509 C17.39,72.508 12.506,77.225 11.4,78.323 L8.95,80.759 C7.942,81.761 6.727,83.581 6.096,84.999 C5.066,84.118 3.52,84.084 2.457,84.997 L1.993,85.395 C0.81,86.411 0.661,88.219 1.663,89.415 L9.695,98.997 C10.696,100.192 12.483,100.339 13.666,99.322 L14.132,98.923 C15.315,97.906 15.463,96.098 14.461,94.903 L14.356,94.778 C14.837,94.649 15.133,94.539 15.133,94.539 C16.591,93.985 18.688,92.634 19.794,91.534 L25.242,86.1 C26.347,85 28.075,83.126 29.081,81.935 L31.421,79.623 C32.615,78.62 34.325,77.075 35.221,76.189 C36.117,75.303 36.545,73.933 36.173,73.144 C36.173,73.144 36.173,73.144 36.173,72.299 C36.173,69.705 41.287,64.604 43.896,64.604 C46.078,64.604 47.698,65.168 47.698,65.168 C49.171,65.681 51.571,66.544 53.032,67.087 C53.032,67.087 60.306,69.791 65.899,69.791 C85.287,69.789 100.997,54.174 101,34.897 C100.997,15.621 85.287,0.003 65.898,0 L65.898,0 Z M84.158,52.174 C79.576,56.713 73.315,59.508 66.338,59.511 C59.36,59.508 53.1,56.713 48.517,52.174 C43.953,47.621 41.142,41.395 41.137,34.459 C41.143,27.522 43.953,21.298 48.517,16.745 C53.1,12.201 59.36,9.409 66.338,9.406 C73.316,9.409 79.576,12.201 84.158,16.744 C88.726,21.298 91.533,27.52 91.539,34.458 C91.533,41.395 88.727,47.621 84.158,52.174 L84.158,52.174 Z M81.488,22.747 C81.294,23.235 80.843,23.526 80.284,23.526 C79.561,23.526 78.71,23.068 77.821,22.202 C77.815,22.2 74.561,19.538 67.619,19.303 C56.416,18.94 50.336,27.742 50.336,36.016 C50.336,40.221 51.284,43.555 51.881,44.668 C52.976,46.707 52.82,46.965 52.696,47.174 L52.55,47.417 L52.23,47.438 L52.221,47.438 C51.951,47.438 51.684,47.414 50.259,45.253 C48.197,42.125 47.176,38.636 47.14,34.59 C47.096,29.78 49.084,25.1 52.739,21.412 C56.866,17.247 62.549,14.939 68.266,15.169 C75.854,15.467 79.83,19.146 79.996,19.303 C81.279,20.515 81.851,21.834 81.488,22.747 L81.488,22.747 Z" id="Shape"></path>
        </g>
    </g>
</svg>