<?xml version="1.0" encoding="UTF-8" standalone="no"?><svg viewBox="0 0 100 100" version="1.1" xmlns="http://www.w3.org/2000/svg" xmlns:xlink="http://www.w3.org/1999/xlink"><path fill="#C6C6C6" fill-rule="evenodd" d="M64.898 0c-19.39.003-35.1 15.62-35.103 34.897 0 5.56 2.713 12.777 2.713 12.777.55 1.46 1.423 3.856 1.942 5.326 0 0 .57 1.612.57 3.78 0 2.594-5.11 7.695-7.72 7.695h-.85c-.794-.37-2.177.053-3.073.938-.896.886-2.452 2.584-3.457 3.775l-2.333 2.32c-1.197 1-6.08 5.717-7.187 6.815L7.95 80.76c-1.008 1-2.223 2.82-2.854 4.24-1.03-.882-2.576-.916-3.64-.003l-.463.398C-.19 86.41-.34 88.22.663 89.415l8.032 9.582c1 1.195 2.788 1.342 3.97.325l.467-.4c1.183-1.016 1.33-2.824.33-4.02l-.106-.124c.48-.13.777-.24.777-.24 1.458-.553 3.555-1.904 4.66-3.004l5.45-5.434c1.104-1.1 2.832-2.974 3.838-4.165l2.34-2.312c1.195-1.003 2.905-2.548 3.8-3.434.897-.887 1.325-2.257.953-3.046V72.3c0-2.595 5.114-7.696 7.723-7.696 2.182 0 3.802.564 3.802.564 1.473.513 3.873 1.376 5.334 1.92 0 0 7.274 2.703 12.867 2.703 19.387 0 35.097-15.616 35.1-34.893C99.997 15.62 84.287.003 64.898 0zm18.26 52.174c-4.582 4.54-10.843 7.334-17.82 7.337-6.978-.002-13.238-2.797-17.82-7.336-4.565-4.553-7.376-10.78-7.38-17.715.005-6.938 2.815-13.162 7.38-17.715C52.1 12.2 58.36 9.41 65.337 9.405c6.978.004 13.238 2.796 17.82 7.34 4.568 4.553 7.375 10.775 7.38 17.713-.005 6.937-2.81 13.163-7.38 17.716zm-2.67-29.427c-.194.488-.645.78-1.204.78-.723 0-1.574-.46-2.463-1.325-.005-.002-3.26-2.664-10.2-2.9-11.204-.362-17.284 8.44-17.284 16.714 0 4.205.948 7.54 1.545 8.652 1.096 2.04.94 2.297.816 2.506l-.146.243-.32.02h-.01c-.27 0-.536-.023-1.96-2.184-2.063-3.128-3.084-6.617-3.12-10.663-.044-4.81 1.944-9.49 5.6-13.178 4.126-4.165 9.81-6.473 15.526-6.243 7.588.297 11.564 3.976 11.73 4.133 1.283 1.212 1.855 2.53 1.492 3.444z"/></svg>
